<?xml version="1.0" standalone="no"?>
<!DOCTYPE svg PUBLIC "-//W3C//DTD SVG 20010904//EN"
 "http://www.w3.org/TR/2001/REC-SVG-20010904/DTD/svg10.dtd">
<svg version="1.0" xmlns="http://www.w3.org/2000/svg"
 width="433.000000pt" height="577.000000pt" viewBox="0 0 433.000000 577.000000"
 preserveAspectRatio="xMidYMid meet">

<g transform="translate(0.000000,577.000000) scale(0.100000,-0.100000)"
fill="#000000" stroke="none">
<path d="M2036 4348 c-90 -29 -144 -71 -172 -132 -29 -64 -58 -209 -49 -252 3
-20 1 -37 -7 -46 -7 -7 -14 -31 -15 -53 -1 -31 0 -36 8 -22 17 30 28 18 23
-27 -2 -25 0 -48 6 -51 5 -3 10 3 10 14 0 26 17 36 24 14 2 -10 2 18 0 62 -6
102 2 116 47 83 82 -61 156 -76 197 -38 32 30 50 25 58 -17 6 -30 3 -39 -15
-54 -20 -17 -20 -18 -4 -35 17 -17 17 -18 1 -11 -10 3 -18 2 -18 -2 0 -5 -23
-17 -50 -27 -60 -21 -89 -49 -72 -66 8 -8 15 -8 26 1 19 16 122 19 137 4 9 -9
5 -14 -17 -19 -16 -4 -32 -9 -36 -11 -8 -4 9 -38 30 -62 22 -23 -8 -43 -67
-44 -41 -2 -55 2 -62 16 -6 9 -17 17 -25 17 -9 0 -31 15 -50 34 -37 37 -45 26
-18 -27 26 -49 65 -83 145 -124 41 -21 74 -43 74 -50 0 -6 3 -14 7 -18 4 -4 0
-17 -8 -30 -8 -13 -14 -42 -13 -69 2 -39 -2 -51 -25 -75 -24 -25 -26 -32 -17
-50 12 -22 31 -29 31 -11 0 5 13 16 29 25 32 16 38 12 50 -30 l6 -24 60 24
c33 14 72 38 88 55 15 17 32 28 37 25 5 -3 11 -1 15 5 3 5 1 10 -5 10 -6 0 -9
4 -6 9 3 5 15 7 26 4 22 -6 35 15 27 44 -4 16 -6 15 -12 -4 -10 -31 -25 -29
-23 3 2 18 -5 32 -21 43 -66 46 -71 55 -71 138 0 53 5 87 17 108 9 17 21 50
28 75 10 37 16 45 36 45 18 0 25 6 27 25 2 14 8 35 14 47 13 27 3 114 -15 125
-7 4 -13 33 -14 75 -2 108 -22 179 -67 247 -36 54 -48 64 -106 87 -89 36 -133
40 -204 17z m264 -488 c8 -5 12 -12 9 -15 -8 -8 -39 5 -39 16 0 11 11 11 30
-1z m-165 -130 c4 -6 -8 -10 -30 -10 -22 0 -34 4 -30 10 3 6 17 10 30 10 13 0
27 -4 30 -10z"/>
<path d="M2087 3823 c-13 -13 -7 -21 13 -16 11 3 20 9 20 14 0 10 -24 12 -33
2z"/>
<path d="M1868 3726 c-4 -17 0 -26 13 -29 15 -4 16 -1 7 24 -12 35 -14 36 -20
5z"/>
<path d="M1893 3449 c1 -8 -28 -34 -40 -34 -1 0 -5 -13 -8 -28 l-8 -29 37 34
c34 31 48 68 26 68 -5 0 -9 -5 -7 -11z"/>
<path d="M2460 3289 c0 -15 5 -31 12 -35 8 -5 9 -2 5 9 -3 9 -2 19 2 22 5 2
11 -5 15 -18 4 -18 12 -22 40 -22 20 1 38 3 40 6 3 2 -22 18 -55 35 l-59 31 0
-28z m65 -19 c3 -5 -1 -10 -9 -10 -9 0 -16 5 -16 10 0 6 4 10 9 10 6 0 13 -4
16 -10z"/>
<path d="M2597 3239 c7 -7 15 -10 18 -7 3 3 -2 9 -12 12 -14 6 -15 5 -6 -5z"/>
<path d="M2838 2942 c-10 -66 -27 -124 -45 -160 l-28 -57 -5 40 c-3 22 -4 64
-3 93 2 34 0 51 -7 47 -5 -3 -10 -32 -10 -63 0 -49 -16 -209 -35 -357 -3 -22
-8 -60 -11 -85 -4 -25 -13 -74 -21 -108 -10 -45 -11 -73 -4 -95 5 -18 12 -96
15 -175 5 -114 4 -142 -6 -136 -9 6 -9 3 1 -9 10 -13 11 -24 2 -48 -15 -44
-14 -83 5 -127 34 -82 60 -269 37 -265 -7 2 -13 -2 -13 -9 0 -6 -11 -25 -24
-43 -23 -30 -24 -34 -10 -61 9 -16 15 -30 15 -31 -5 -17 3 -24 18 -20 19 5 38
-19 26 -31 -3 -3 -5 0 -5 7 0 16 -17 5 -31 -21 -10 -19 -9 -20 9 -16 12 3 23
1 26 -6 2 -6 5 -3 5 7 1 10 17 50 37 88 20 38 34 73 30 76 -3 3 -1 12 5 20 6
7 9 13 5 13 -3 0 1 17 9 37 9 21 15 47 13 58 -1 11 13 42 31 68 46 67 58 52
42 -50 -6 -43 -12 -86 -13 -95 -1 -9 -5 -15 -9 -12 -13 8 8 -150 26 -196 5
-15 -46 -85 -56 -76 -2 2 -10 -2 -16 -9 -10 -11 -7 -13 19 -12 29 2 32 -1 45
-47 8 -28 13 -62 11 -78 -3 -15 -1 -28 4 -28 4 0 8 -5 8 -11 0 -5 -4 -8 -9 -4
-5 3 -11 -5 -13 -17 -4 -20 -6 -18 -15 12 -6 19 -12 28 -12 19 -1 -9 4 -30 10
-46 8 -24 7 -39 -5 -68 -9 -21 -16 -48 -16 -61 0 -35 -27 -30 -35 6 -4 16 -11
32 -16 36 -13 8 -23 -24 -12 -39 5 -6 10 -38 11 -69 3 -76 -19 -79 -43 -7 -9
28 -22 48 -28 46 -7 -2 -20 -27 -30 -56 -14 -43 -17 -80 -15 -195 l3 -141 19
42 c19 45 53 63 37 21 -6 -19 -7 -61 -2 -101 1 -5 5 -6 10 -2 5 3 12 -3 16
-14 3 -11 12 -24 20 -31 11 -9 13 -7 11 14 -1 14 -6 29 -9 33 -4 3 -7 11 -7
17 0 6 5 3 11 -6 13 -23 29 -23 29 0 0 30 11 33 44 10 37 -26 48 -40 37 -48
-15 -9 -18 -35 -8 -55 15 -29 36 -115 28 -115 -7 0 -35 30 -39 43 -1 4 -2 15
-2 25 -1 16 -1 16 -11 -1 -6 -9 -9 -36 -7 -59 3 -39 4 -41 19 -25 17 17 29 13
29 -10 0 -7 -8 -13 -17 -13 -17 -1 -17 -1 0 -14 11 -8 17 -27 17 -50 0 -32 3
-36 26 -36 26 0 26 0 19 62 -4 35 -9 90 -12 123 -7 113 -18 149 -49 168 -8 4
-14 13 -14 19 0 7 5 6 15 -2 8 -7 15 -9 15 -5 0 12 -41 75 -67 103 -67 72
-105 162 -68 162 8 0 24 13 37 30 12 16 25 30 30 30 4 0 17 9 28 20 33 33 50
26 50 -21 0 -22 4 -38 9 -35 4 3 6 -12 4 -33 -3 -24 0 -42 7 -46 19 -12 29 15
25 69 -2 28 -1 98 4 156 7 110 -3 189 -34 263 -8 20 -16 49 -16 65 -5 130 -1
312 10 492 12 180 12 246 1 400 -7 102 -15 218 -17 258 -3 39 -6 72 -7 72 -2
0 -27 -8 -57 -19 -31 -10 -74 -22 -96 -26 -36 -6 -42 -4 -48 14 -6 20 -1 88
11 161 4 19 14 44 24 55 17 20 103 185 97 185 -9 0 -69 -83 -72 -100 -5 -26
-45 -83 -53 -75 -4 3 0 10 8 15 8 5 12 12 8 15 -4 4 0 25 8 47 8 22 14 49 14
60 0 11 13 50 29 86 37 86 63 190 59 239 -2 28 -7 12 -20 -65z m-101 -1614
c-3 -8 -6 -5 -6 6 -1 11 2 17 5 13 3 -3 4 -12 1 -19z m213 -412 c0 -8 -6 -26
-14 -40 -11 -22 -15 -24 -20 -11 -9 25 -7 47 4 40 6 -3 10 3 10 15 0 12 5 18
10 15 6 -3 10 -12 10 -19z"/>
<path d="M2921 2804 c0 -11 3 -14 6 -6 3 7 2 16 -1 19 -3 4 -6 -2 -5 -13z"/>
<path d="M2316 2674 c-8 -21 -8 -21 9 -27 20 -8 26 5 10 26 -11 16 -13 16 -19
1z"/>
<path d="M2436 2677 c-15 -11 -16 -16 -6 -22 7 -4 16 -2 21 6 7 12 9 12 9 0 0
-8 3 -12 6 -8 3 3 2 13 -3 21 -8 14 -12 14 -27 3z"/>
<path d="M2482 2670 c0 -14 2 -19 5 -12 2 6 2 18 0 25 -3 6 -5 1 -5 -13z"/>
<path d="M2186 2671 c-4 -5 3 -7 14 -4 22 6 28 -12 8 -20 -8 -3 -6 -6 5 -6 11
-1 17 6 17 19 0 21 -33 29 -44 11z"/>
<path d="M2265 2671 c-3 -5 -1 -12 5 -16 5 -3 10 1 10 9 0 18 -6 21 -15 7z"/>
<path d="M1976 2661 c-20 -32 43 -57 73 -28 9 7 11 7 8 1 -4 -7 0 -14 8 -18 8
-3 15 -1 15 5 0 6 9 8 23 3 12 -3 19 -3 15 1 -4 5 -3 14 3 21 9 11 7 15 -6 20
-10 4 -21 1 -27 -7 -7 -11 -11 -11 -15 -1 -7 18 -26 15 -46 -8 -19 -23 -39
-27 -31 -6 6 16 -12 31 -20 17z"/>
<path d="M2148 2663 c7 -3 16 -2 19 1 4 3 -2 6 -13 5 -11 0 -14 -3 -6 -6z"/>
<path d="M1861 2639 c11 -21 79 -28 79 -8 0 5 -4 7 -10 4 -5 -3 -10 2 -11 12
0 16 -1 16 -9 -2 -7 -15 -9 -16 -9 -4 -1 11 -10 17 -26 17 -21 0 -23 -3 -14
-19z"/>
<path d="M2146 2642 c-3 -5 1 -9 9 -9 8 0 12 4 9 9 -3 4 -7 8 -9 8 -2 0 -6 -4
-9 -8z"/>
<path d="M2195 2610 c-11 -19 6 -30 46 -30 27 0 39 4 39 15 0 10 -9 13 -30 10
-16 -2 -30 1 -30 6 0 12 -17 12 -25 -1z"/>
<path d="M2299 2610 c-7 -5 -5 -9 6 -14 24 -9 53 -8 59 3 7 11 -49 20 -65 11z"/>
<path d="M2478 2613 c-25 -6 -23 -22 2 -20 11 1 20 7 20 14 0 7 -1 12 -2 12
-2 -1 -11 -3 -20 -6z"/>
<path d="M2033 2585 c0 -24 22 -53 33 -42 13 12 10 43 -5 54 -23 18 -28 16
-28 -12z"/>
<path d="M2096 2594 c-3 -9 -4 -20 0 -25 7 -12 34 -12 34 1 0 5 -8 7 -17 3
-15 -5 -16 -3 -5 8 6 7 12 17 12 21 0 14 -18 8 -24 -8z"/>
<path d="M2383 2598 c2 -7 10 -13 17 -13 7 0 15 6 18 13 2 7 -5 12 -18 12 -13
0 -20 -5 -17 -12z"/>
<path d="M2430 2600 c0 -5 5 -10 10 -10 6 0 10 5 10 10 0 6 -4 10 -10 10 -5 0
-10 -4 -10 -10z"/>
<path d="M2150 2590 c0 -5 5 -10 10 -10 6 0 10 5 10 10 0 6 -4 10 -10 10 -5 0
-10 -4 -10 -10z"/>
<path d="M1860 2571 c0 -12 9 -20 23 -23 20 -4 23 -1 19 19 -5 29 -42 32 -42
4z"/>
<path d="M1970 2570 c0 -19 11 -26 23 -14 8 8 -3 34 -14 34 -5 0 -9 -9 -9 -20z"/>
<path d="M1935 2570 c3 -5 11 -10 16 -10 6 0 7 5 4 10 -3 6 -11 10 -16 10 -6
0 -7 -4 -4 -10z"/>
<path d="M2213 2552 c-7 -4 -9 -13 -4 -21 9 -15 68 -11 63 4 -2 6 -9 9 -14 7
-6 -1 -15 2 -22 7 -6 5 -17 7 -23 3z"/>
<path d="M2398 2555 c-4 -4 -27 -8 -52 -9 -26 0 -45 -5 -44 -11 2 -6 25 -8 53
-6 55 3 59 5 53 21 -2 6 -6 8 -10 5z"/>
<path d="M2026 2541 c-4 -6 -4 -11 0 -11 3 0 -2 -12 -11 -27 -18 -28 -18 -28
2 -11 15 14 22 15 32 5 11 -10 12 -7 6 13 -9 32 -21 45 -29 31z"/>
<path d="M2155 2529 c7 -11 35 -12 35 -1 0 4 -9 8 -20 9 -11 1 -18 -2 -15 -8z"/>
<path d="M1529 2504 c-1 -16 0 -42 1 -57 3 -41 -24 -56 -100 -57 -47 -1 -59
-4 -44 -10 12 -5 24 -12 27 -17 9 -14 -31 -231 -44 -238 -4 -3 -14 2 -22 10
-46 46 -74 -33 -50 -142 8 -37 15 -80 15 -95 -1 -25 1 -26 28 -16 17 6 30 18
32 30 4 30 24 33 32 6 7 -21 8 -20 22 17 8 22 18 78 21 125 3 47 15 128 28
180 13 52 26 107 29 123 11 45 23 31 30 -35 4 -35 11 -79 16 -98 7 -31 8 -28
9 28 1 35 5 71 10 81 7 11 4 45 -8 99 -19 89 -30 112 -32 66z m-136 -426 c15
-11 16 -17 5 -45 -16 -42 -29 -42 -26 0 1 18 -2 38 -6 45 -9 16 6 15 27 0z"/>
<path d="M1895 2499 c-4 -6 -5 -12 -2 -15 2 -3 7 2 10 11 7 17 1 20 -8 4z"/>
<path d="M2608 2493 c7 -3 16 -2 19 1 4 3 -2 6 -13 5 -11 0 -14 -3 -6 -6z"/>
<path d="M2028 2463 c7 -3 16 -2 19 1 4 3 -2 6 -13 5 -11 0 -14 -3 -6 -6z"/>
<path d="M1328 2393 c7 -3 16 -2 19 1 4 3 -2 6 -13 5 -11 0 -14 -3 -6 -6z"/>
<path d="M2249 2389 c-7 -28 -4 -557 4 -569 13 -22 -20 -93 -39 -86 -16 6 -19
-10 -4 -19 6 -3 10 -11 10 -16 0 -6 -3 -8 -7 -6 -5 3 -9 -23 -11 -57 -2 -58
-1 -60 12 -34 14 27 32 110 29 136 0 6 3 12 8 12 5 0 9 6 9 13 0 6 7 24 14 39
14 26 13 29 -5 38 -10 6 -19 16 -18 23 0 9 2 9 6 0 9 -23 33 -14 33 12 0 14
-4 25 -10 25 -5 0 -14 9 -20 20 -8 15 -8 20 1 18 8 -2 12 26 12 97 0 156 -16
387 -24 354z"/>
<path d="M1976 2299 c-7 -22 -16 -109 -12 -109 8 0 28 111 22 117 -3 3 -8 0
-10 -8z"/>
<path d="M1540 2040 c0 -19 3 -21 12 -12 9 9 9 15 0 24 -9 9 -12 7 -12 -12z"/>
<path d="M1411 1854 c0 -11 3 -14 6 -6 3 7 2 16 -1 19 -3 4 -6 -2 -5 -13z"/>
<path d="M1331 1827 c-1 -24 -4 -27 -21 -22 -14 4 -20 2 -20 -9 0 -8 5 -18 11
-21 6 -4 7 -19 3 -38 -4 -18 -8 -41 -9 -52 -1 -11 -3 -20 -4 -20 -2 0 -4 -18
-7 -40 -2 -22 -9 -74 -15 -115 -23 -153 -25 -179 -16 -266 13 -133 9 -122 67
-191 5 -6 12 -30 15 -53 3 -23 9 -49 15 -60 7 -12 5 -27 -6 -49 -13 -25 -13
-37 -3 -71 9 -31 10 -43 1 -52 -7 -7 -12 -20 -12 -31 0 -22 -18 -13 -31 17 -8
18 -9 16 -6 -11 3 -28 0 -33 -18 -33 -31 0 -38 11 -20 30 13 15 14 18 2 23
-19 7 -10 65 13 77 20 11 27 82 7 74 -32 -13 -50 -58 -53 -133 -2 -42 -8 -77
-14 -79 -16 -6 -12 -22 5 -22 9 0 15 -9 15 -23 0 -26 52 -87 73 -87 23 0 26
-19 33 -178 5 -135 4 -157 -20 -264 -14 -65 -26 -120 -26 -123 0 -3 121 -5
269 -5 l268 0 21 68 c40 129 71 258 82 338 10 79 62 289 74 301 12 12 18 -6
25 -80 4 -50 3 -94 -6 -129 -15 -64 -16 -160 -4 -242 6 -34 15 -97 21 -141 6
-44 14 -88 16 -97 5 -16 23 -18 205 -18 153 0 199 3 199 13 0 23 45 177 52
177 4 0 5 -13 2 -30 -4 -17 -2 -30 3 -30 21 0 64 79 73 134 10 64 16 76 35 76
7 0 23 15 34 34 18 29 21 49 21 153 0 70 6 141 14 173 10 38 11 60 4 73 -5 10
-7 24 -5 31 3 7 2 28 -3 47 -7 29 -8 31 -10 9 -1 -14 -2 -31 -1 -37 1 -7 -2
-13 -8 -13 -17 0 0 123 32 228 l32 103 37 -5 c20 -3 40 -2 43 4 7 11 4 12 -39
14 -16 1 -31 7 -34 14 -7 22 -32 12 -38 -15 -10 -43 -33 -63 -111 -99 -116
-55 -225 -76 -410 -82 -138 -4 -182 -1 -290 18 -234 40 -425 92 -489 131 -17
10 -34 19 -37 19 -3 0 -11 -16 -17 -35 -6 -19 -17 -35 -25 -35 -32 0 -45 111
-27 232 9 62 18 97 73 288 12 41 23 93 26 115 l4 40 -17 -35 c-10 -19 -16 -41
-15 -47 1 -7 -3 -13 -8 -13 -6 0 -8 -7 -5 -15 4 -8 1 -15 -5 -15 -6 0 -11 6
-12 13 0 6 -2 23 -3 37 -2 14 0 35 5 47 5 13 5 49 0 80 -5 32 -9 45 -10 30z
m1294 -976 c-3 -6 -11 -11 -17 -11 -6 0 -6 6 2 15 14 17 26 13 15 -4z m-1267
-163 c-5 -32 -28 -35 -28 -4 0 17 5 26 16 26 10 0 14 -7 12 -22z m-58 -28 c0
-5 -8 -10 -17 -10 -15 0 -16 2 -3 10 19 12 20 12 20 0z"/>
<path d="M1351 1824 c0 -11 3 -14 6 -6 3 7 2 16 -1 19 -3 4 -6 -2 -5 -13z"/>
<path d="M2162 1633 c-7 -16 -14 -62 -16 -103 -5 -75 -23 -164 -25 -125 -2 19
-2 19 -12 2 -6 -10 -8 -21 -5 -24 3 -3 -1 -12 -9 -19 -15 -16 -29 -19 -20 -5
3 5 1 12 -4 15 -5 4 -15 -10 -22 -29 -7 -19 -17 -35 -22 -35 -4 0 -5 -4 -2
-10 10 -16 -13 -47 -62 -85 -25 -19 -43 -35 -38 -35 13 0 65 34 65 43 0 5 8 6
18 3 13 -5 22 1 30 19 6 14 16 25 22 25 5 0 10 7 10 15 0 8 5 15 10 15 6 0 10
-5 10 -11 0 -18 49 42 72 90 14 29 22 62 21 91 -2 71 -8 190 -9 190 -1 0 -6
-12 -12 -27z"/>
<path d="M1467 1558 c-3 -29 -8 -62 -12 -73 -4 -11 4 -2 18 20 13 22 27 55 30
73 5 27 3 32 -12 32 -15 0 -19 -10 -24 -52z"/>
<path d="M2636 1593 c-13 -13 -5 -52 17 -92 22 -39 47 -48 27 -10 -6 10 -10
22 -9 26 3 20 -2 34 -11 28 -7 -4 -9 2 -5 18 6 24 -6 43 -19 30z"/>
<path d="M1402 1381 c-22 -39 -29 -77 -13 -67 10 6 43 97 38 103 -2 1 -13 -15
-25 -36z"/>
<path d="M2842 1180 c0 -14 2 -19 5 -12 2 6 2 18 0 25 -3 6 -5 1 -5 -13z"/>
<path d="M2850 1071 c0 -23 24 -60 42 -65 20 -5 20 -4 -1 18 -11 12 -21 27
-21 34 0 6 -4 14 -10 17 -5 3 -10 2 -10 -4z"/>
<path d="M2862 979 c-1 -15 -5 -42 -8 -60 -4 -28 -3 -31 6 -16 6 9 9 36 7 60
-2 23 -4 30 -5 16z"/>
<path d="M1290 971 c0 -11 4 -22 9 -25 4 -3 6 6 3 19 -5 30 -12 33 -12 6z"/>
<path d="M2710 848 c0 -27 4 -38 15 -38 19 0 19 17 0 50 l-14 25 -1 -37z"/>
<path d="M1292 810 c0 -14 2 -19 5 -12 2 6 2 18 0 25 -3 6 -5 1 -5 -13z"/>
<path d="M2954 523 c3 -21 6 -58 6 -82 0 -64 16 -38 23 36 3 38 1 65 -6 72
-21 21 -30 11 -23 -26z"/>
<path d="M2661 347 c-11 -19 -21 -41 -21 -48 0 -8 12 6 25 30 30 52 27 67 -4
18z"/>
<path d="M2733 280 c13 -35 33 -70 40 -70 13 0 7 16 -19 51 -15 19 -24 27 -21
19z"/>
<path d="M2632 193 c0 -39 3 -52 8 -38 11 27 12 67 1 83 -5 9 -8 -8 -9 -45z"/>
<path d="M2770 176 c0 -9 5 -16 10 -16 6 0 10 4 10 9 0 6 -4 13 -10 16 -5 3
-10 -1 -10 -9z"/>
<path d="M2682 150 c0 -19 2 -27 5 -17 2 9 2 25 0 35 -3 9 -5 1 -5 -18z"/>
<path d="M2815 150 c-4 -6 -10 -8 -15 -5 -13 8 -21 -27 -18 -89 l2 -56 43 0
c42 0 43 0 43 35 0 19 -4 35 -9 35 -12 0 -34 67 -26 80 3 5 2 10 -4 10 -5 0
-13 -5 -16 -10z"/>
</g>
</svg>
